<svg width="13" height="13" viewBox="0 0 13 13" fill="none" xmlns="http://www.w3.org/2000/svg">
<path d="M6.364 4.95L10.607 0.707001C10.9975 0.316535 11.6305 0.316535 12.021 0.707C12.4115 1.09747 12.4115 1.73053 12.021 2.121L7.778 6.364L12.021 10.607C12.4115 10.9975 12.4115 11.6305 12.021 12.021C11.6305 12.4115 10.9975 12.4115 10.607 12.021L6.364 7.778L2.121 12.021C1.73054 12.4115 1.09747 12.4115 0.707 12.021C0.316535 11.6305 0.316535 10.9975 0.707 10.607L4.95 6.364L0.707001 2.121C0.316535 1.73054 0.316535 1.09747 0.707 0.707C1.09747 0.316535 1.73053 0.316535 2.121 0.707L6.364 4.95Z" fill="#1D1D1B"/>
</svg>
